<mxfile host="app.diagrams.net" agent="Mozilla/5.0 (Macintosh; Intel Mac OS X 10_15_7) AppleWebKit/537.36 (KHTML, like Gecko) Chrome/127.0.0.0 Safari/537.36" version="24.7.6">
  <diagram name="페이지-1" id="GSGMViEQiNHDJG0oDuic">
    <mxGraphModel dx="2792" dy="993" grid="0" gridSize="10" guides="1" tooltips="1" connect="1" arrows="1" fold="1" page="0" pageScale="1" pageWidth="827" pageHeight="1169" math="0" shadow="0">
      <root>
        <mxCell id="0" />
        <mxCell id="1" parent="0" />
        <mxCell id="mHfV_VkD1mUQuxbYOHMV-1" value="App 실행" style="ellipse;whiteSpace=wrap;html=1;" vertex="1" parent="1">
          <mxGeometry x="110" y="50" width="180" height="116" as="geometry" />
        </mxCell>
        <mxCell id="mHfV_VkD1mUQuxbYOHMV-3" value="No" style="endArrow=classic;html=1;rounded=0;fontSize=12;startSize=8;endSize=8;curved=1;entryX=0;entryY=0.5;entryDx=0;entryDy=0;" edge="1" parent="1" target="mHfV_VkD1mUQuxbYOHMV-6">
          <mxGeometry width="50" height="50" relative="1" as="geometry">
            <mxPoint x="318.5" y="341.47" as="sourcePoint" />
            <mxPoint x="497" y="338" as="targetPoint" />
          </mxGeometry>
        </mxCell>
        <mxCell id="mHfV_VkD1mUQuxbYOHMV-5" value="" style="endArrow=classic;html=1;rounded=0;fontSize=12;startSize=8;endSize=8;curved=1;exitX=0.5;exitY=1;exitDx=0;exitDy=0;entryX=0.5;entryY=0;entryDx=0;entryDy=0;" edge="1" parent="1" source="mHfV_VkD1mUQuxbYOHMV-1">
          <mxGeometry width="50" height="50" relative="1" as="geometry">
            <mxPoint x="333" y="280" as="sourcePoint" />
            <mxPoint x="200" y="280" as="targetPoint" />
          </mxGeometry>
        </mxCell>
        <mxCell id="mHfV_VkD1mUQuxbYOHMV-6" value="로그인 페이지" style="shape=document;whiteSpace=wrap;html=1;boundedLbl=1;" vertex="1" parent="1">
          <mxGeometry x="497" y="293" width="180" height="98" as="geometry" />
        </mxCell>
        <mxCell id="mHfV_VkD1mUQuxbYOHMV-11" value="" style="edgeStyle=segmentEdgeStyle;endArrow=classic;html=1;curved=0;rounded=0;endSize=8;startSize=8;fontSize=12;" edge="1" parent="1">
          <mxGeometry width="50" height="50" relative="1" as="geometry">
            <mxPoint x="584" y="291" as="sourcePoint" />
            <mxPoint x="200" y="243" as="targetPoint" />
            <Array as="points">
              <mxPoint x="587" y="291" />
              <mxPoint x="587" y="243" />
            </Array>
          </mxGeometry>
        </mxCell>
        <mxCell id="mHfV_VkD1mUQuxbYOHMV-12" value="Login Button Pressed" style="edgeLabel;html=1;align=center;verticalAlign=middle;resizable=0;points=[];fontSize=12;" vertex="1" connectable="0" parent="mHfV_VkD1mUQuxbYOHMV-11">
          <mxGeometry x="0.0238" y="1" relative="1" as="geometry">
            <mxPoint as="offset" />
          </mxGeometry>
        </mxCell>
        <mxCell id="mHfV_VkD1mUQuxbYOHMV-14" value="" style="endArrow=classic;html=1;rounded=0;fontSize=12;startSize=8;endSize=8;curved=1;exitX=0.5;exitY=1;exitDx=0;exitDy=0;entryX=0.5;entryY=0;entryDx=0;entryDy=0;" edge="1" parent="1" target="mHfV_VkD1mUQuxbYOHMV-15">
          <mxGeometry width="50" height="50" relative="1" as="geometry">
            <mxPoint x="199.17" y="401" as="sourcePoint" />
            <mxPoint x="199.17" y="492" as="targetPoint" />
          </mxGeometry>
        </mxCell>
        <mxCell id="mHfV_VkD1mUQuxbYOHMV-18" value="Yes" style="edgeLabel;html=1;align=center;verticalAlign=middle;resizable=0;points=[];fontSize=12;" vertex="1" connectable="0" parent="mHfV_VkD1mUQuxbYOHMV-14">
          <mxGeometry x="-0.2258" y="2" relative="1" as="geometry">
            <mxPoint y="-1" as="offset" />
          </mxGeometry>
        </mxCell>
        <mxCell id="mHfV_VkD1mUQuxbYOHMV-15" value="Firebase Database Users 존재 여부" style="rhombus;whiteSpace=wrap;html=1;" vertex="1" parent="1">
          <mxGeometry x="81.5" y="503" width="237" height="114" as="geometry" />
        </mxCell>
        <mxCell id="mHfV_VkD1mUQuxbYOHMV-17" value="Firebase SNS Login Status" style="rhombus;whiteSpace=wrap;html=1;" vertex="1" parent="1">
          <mxGeometry x="81.5" y="285" width="237" height="114" as="geometry" />
        </mxCell>
        <mxCell id="mHfV_VkD1mUQuxbYOHMV-19" value="No" style="endArrow=classic;html=1;rounded=0;fontSize=12;startSize=8;endSize=8;curved=1;entryX=0;entryY=0.5;entryDx=0;entryDy=0;" edge="1" parent="1">
          <mxGeometry width="50" height="50" relative="1" as="geometry">
            <mxPoint x="318.5" y="559.4100000000001" as="sourcePoint" />
            <mxPoint x="497" y="559.94" as="targetPoint" />
          </mxGeometry>
        </mxCell>
        <mxCell id="mHfV_VkD1mUQuxbYOHMV-20" value="회원가입 페이지" style="shape=document;whiteSpace=wrap;html=1;boundedLbl=1;" vertex="1" parent="1">
          <mxGeometry x="497" y="519" width="180" height="98" as="geometry" />
        </mxCell>
        <mxCell id="mHfV_VkD1mUQuxbYOHMV-21" value="" style="endArrow=classic;html=1;rounded=0;fontSize=12;startSize=8;endSize=8;curved=1;exitX=0.5;exitY=1;exitDx=0;exitDy=0;entryX=0.5;entryY=0;entryDx=0;entryDy=0;" edge="1" parent="1">
          <mxGeometry width="50" height="50" relative="1" as="geometry">
            <mxPoint x="199.41" y="617" as="sourcePoint" />
            <mxPoint x="200.24" y="719" as="targetPoint" />
          </mxGeometry>
        </mxCell>
        <mxCell id="mHfV_VkD1mUQuxbYOHMV-22" value="Yes" style="edgeLabel;html=1;align=center;verticalAlign=middle;resizable=0;points=[];fontSize=12;" vertex="1" connectable="0" parent="mHfV_VkD1mUQuxbYOHMV-21">
          <mxGeometry x="-0.2258" y="2" relative="1" as="geometry">
            <mxPoint y="-1" as="offset" />
          </mxGeometry>
        </mxCell>
        <mxCell id="mHfV_VkD1mUQuxbYOHMV-24" value="" style="edgeStyle=segmentEdgeStyle;endArrow=classic;html=1;curved=0;rounded=0;endSize=8;startSize=8;fontSize=12;exitX=1;exitY=0.5;exitDx=0;exitDy=0;" edge="1" parent="1" source="mHfV_VkD1mUQuxbYOHMV-20">
          <mxGeometry width="50" height="50" relative="1" as="geometry">
            <mxPoint x="697" y="558" as="sourcePoint" />
            <mxPoint x="677" y="335" as="targetPoint" />
            <Array as="points">
              <mxPoint x="677" y="564" />
              <mxPoint x="776" y="564" />
              <mxPoint x="776" y="335" />
            </Array>
          </mxGeometry>
        </mxCell>
        <mxCell id="mHfV_VkD1mUQuxbYOHMV-26" value="가입완료" style="edgeLabel;html=1;align=center;verticalAlign=middle;resizable=0;points=[];fontSize=12;" vertex="1" connectable="0" parent="mHfV_VkD1mUQuxbYOHMV-24">
          <mxGeometry x="0.0312" y="-1" relative="1" as="geometry">
            <mxPoint y="-1" as="offset" />
          </mxGeometry>
        </mxCell>
        <mxCell id="mHfV_VkD1mUQuxbYOHMV-25" value="Main 페이지" style="shape=document;whiteSpace=wrap;html=1;boundedLbl=1;" vertex="1" parent="1">
          <mxGeometry x="110" y="721" width="180" height="98" as="geometry" />
        </mxCell>
        <mxCell id="mHfV_VkD1mUQuxbYOHMV-27" value="간단한 앱을 구현할 때Firebase에 로그인을 하면 고유 키(UID)가 존재한다&lt;div&gt;UID를 통해 다른 메타정보들 즉 서비스 진행할 때&amp;nbsp;&lt;span style=&quot;background-color: initial;&quot;&gt;사용자에게 부여되는 정보를 함께 저장할 수 있다&lt;/span&gt;&lt;/div&gt;" style="text;html=1;align=center;verticalAlign=middle;resizable=0;points=[];autosize=1;strokeColor=none;fillColor=none;fontSize=16;" vertex="1" parent="1">
          <mxGeometry x="-851" y="441" width="634" height="50" as="geometry" />
        </mxCell>
        <mxCell id="mHfV_VkD1mUQuxbYOHMV-29" value="&lt;span style=&quot;font-size: 24px; font-weight: 700;&quot;&gt;프로필, 닉네임 등 유저에 대한 정보가 추가적으로 필요할 때&amp;nbsp;&lt;/span&gt;&lt;div style=&quot;font-size: 24px; font-weight: 700;&quot;&gt;Firebase Database Users Table가 필요하다&lt;/div&gt;" style="text;html=1;align=center;verticalAlign=middle;resizable=0;points=[];autosize=1;strokeColor=none;fillColor=none;fontSize=16;" vertex="1" parent="1">
          <mxGeometry x="-800" y="507" width="583" height="70" as="geometry" />
        </mxCell>
      </root>
    </mxGraphModel>
  </diagram>
</mxfile>
